<?xml version="1.0" standalone="no"?>
<!DOCTYPE svg PUBLIC "-//W3C//DTD SVG 20010904//EN"
 "http://www.w3.org/TR/2001/REC-SVG-20010904/DTD/svg10.dtd">
<svg version="1.0" xmlns="http://www.w3.org/2000/svg"
 width="1182.000000pt" height="1182.000000pt" viewBox="0 0 1182.000000 1182.000000"
 preserveAspectRatio="xMidYMid meet">
<metadata>
Created by potrace 1.14, written by Peter Selinger 2001-2017
</metadata>
<g transform="translate(0.000000,1182.000000) scale(0.100000,-0.100000)"
fill="#000000" stroke="none">
<path d="M0 5905 l0 -5905 5905 0 5905 0 0 5905 0 5905 -5905 0 -5905 0 0
-5905z m8353 3786 c333 -116 619 -217 636 -226 40 -20 64 -67 56 -106 -8 -36
172 239 -2589 -3949 -1253 -1900 -2289 -3465 -2303 -3478 -13 -12 -35 -22 -48
-22 -29 0 -1240 416 -1272 437 -36 24 -58 81 -46 123 9 32 4830 7357 4876
7408 13 14 32 22 52 22 17 0 304 -94 638 -209z m-4873 134 c374 -56 737 -214
1020 -442 89 -72 257 -243 323 -330 199 -260 349 -592 406 -899 136 -724 -72
-1448 -554 -1929 -210 -210 -482 -381 -783 -491 -406 -149 -904 -170 -1361
-58 -538 132 -988 457 -1268 916 -203 333 -303 704 -303 1126 0 429 97 785
314 1146 323 539 875 887 1539 971 144 18 519 13 667 -10z m5545 -3651 c821
-111 1464 -641 1720 -1419 82 -247 111 -463 102 -769 -8 -293 -50 -503 -151
-754 -288 -711 -961 -1196 -1766 -1273 -146 -14 -425 -6 -575 15 -654 93
-1192 440 -1515 976 -315 523 -387 1210 -190 1812 148 452 443 839 830 1090
286 186 644 305 1015 338 127 11 388 3 530 -16z"/>
<path d="M3030 8500 c-334 -31 -560 -267 -610 -638 -38 -273 35 -530 198 -704
64 -67 89 -86 166 -123 124 -59 177 -70 336 -70 148 1 220 15 325 64 309 145
456 597 325 1004 -107 333 -372 500 -740 467z"/>
<path d="M8558 4840 c-233 -42 -413 -192 -500 -417 -45 -116 -60 -204 -61
-353 0 -105 5 -154 21 -223 55 -225 178 -387 357 -473 96 -46 187 -64 330 -64
301 -1 500 122 619 382 60 130 71 192 70 383 -1 141 -5 184 -23 250 -70 261
-233 438 -457 500 -69 19 -286 28 -356 15z"/>
</g>
</svg>
